<?xml version="1.0" encoding="iso-8859-1"?>
<!-- Uploaded to: SVG Repo, www.svgrepo.com, Generator: SVG Repo Mixer Tools -->
<svg version="1.1" id="Layer_1" xmlns="http://www.w3.org/2000/svg" xmlns:xlink="http://www.w3.org/1999/xlink" 
	 viewBox="0 0 512 512" xml:space="preserve">
<path style="fill:#FFA850;" d="M256,12.255v98.043c27.071,0,49.021-21.951,49.021-49.021S283.071,12.255,256,12.255z"/>
<path style="fill:#FECB69;" d="M256,12.255c12.037,0,21.787,21.951,21.787,49.021s-9.75,49.021-21.787,49.021
	c-27.071,0-49.021-21.951-49.021-49.021S228.929,12.255,256,12.255z"/>
<path style="fill:#326E7D;" d="M146.279,196.815c-4.063-23.617-26.994-42.943-50.96-42.943l-3.824-22.256
	c-3.05-17.713-20.251-32.212-38.226-32.212H20.589l85.624,266.349l65.362-21.787L146.279,196.815z"/>
<path style="fill:#4393A8;" d="M113.599,196.815l25.295,147.151L53.6,377.191H8.17V99.404h12.419
	c17.974,0,35.175,14.499,38.226,32.212l3.824,22.256C86.604,153.872,109.535,173.198,113.599,196.815z"/>
<polygon style="fill:#326E7D;" points="503.83,99.404 503.83,377.191 471.149,377.191 438.468,221.685 471.149,99.404 "/>
<path style="fill:#4393A8;" d="M471.149,99.404v277.787l-12.753,0.003l-117.97-33.229l25.295-147.151
	c4.063-23.617,26.994-42.943,50.96-42.943l3.824-22.256c3.05-17.713,20.251-32.212,38.226-32.212H471.149z"/>
<polygon style="fill:#66DEFE;" points="503.83,377.191 503.83,507.915 471.149,507.915 427.574,442.553 471.149,377.191 "/>
<rect x="8.17" y="377.191" style="fill:#B3EFFF;" width="462.979" height="130.723"/>
<g>
	<path style="fill:#FFFFFF;" d="M416.681,418.043H8.17c-4.512,0-8.17-3.658-8.17-8.17c0-4.512,3.658-8.17,8.17-8.17h408.511
		c4.512,0,8.17,3.658,8.17,8.17C424.851,414.384,421.193,418.043,416.681,418.043z"/>
	<path style="fill:#FFFFFF;" d="M503.83,450.723H226.043c-4.512,0-8.17-3.658-8.17-8.17c0-4.512,3.658-8.17,8.17-8.17H503.83
		c4.512,0,8.17,3.658,8.17,8.17C512,447.065,508.342,450.723,503.83,450.723z"/>
	<path style="fill:#FFFFFF;" d="M193.362,450.723H95.319c-4.512,0-8.17-3.658-8.17-8.17c0-4.512,3.658-8.17,8.17-8.17h98.043
		c4.512,0,8.17,3.658,8.17,8.17C201.532,447.065,197.874,450.723,193.362,450.723z"/>
	<path style="fill:#FFFFFF;" d="M503.83,483.404h-98.043c-4.512,0-8.17-3.658-8.17-8.17c0-4.512,3.658-8.17,8.17-8.17h98.043
		c4.512,0,8.17,3.658,8.17,8.17C512,479.746,508.342,483.404,503.83,483.404z"/>
</g>
<path style="fill:#B3EFFF;" d="M425.715,344.514h-32.681v32.681h65.362C458.396,359.142,443.768,344.514,425.715,344.514z"/>
<polygon style="fill:#8CE6FE;" points="365.72,196.815 393.031,344.511 339.282,360.492 339.554,196.815 "/>
<polygon style="fill:#B3EFFF;" points="339.554,196.815 361.069,349.598 240.014,366.298 118.958,344.511 146.279,196.815 "/>
<path style="fill:#D9F7FF;" d="M425.715,377.195c0-18.053-14.628-32.681-32.681-32.681l-306.753-0.003
	c-18.053,0-32.681,14.628-32.681,32.681L425.715,377.195z"/>
<path d="M256,118.468c31.536,0,57.191-25.656,57.191-57.191S287.536,4.085,256,4.085s-57.191,25.656-57.191,57.191
	S224.464,118.468,256,118.468z M256,20.426c22.526,0,40.851,18.325,40.851,40.851S278.526,102.128,256,102.128
	c-22.526,0-40.851-18.325-40.851-40.851S233.474,20.426,256,20.426z"/>
<path d="M503.83,369.021h-38.086c-3.796-18.622-20.301-32.678-40.029-32.678h-25.883l-25.791-139.48
	c4.011-19.009,23.207-34.821,42.64-34.821c3.978,0,7.378-2.865,8.053-6.786l3.827-22.259c2.369-13.78,16.184-25.422,30.166-25.422
	h45.104c4.512,0,8.17-3.658,8.17-8.17c0-4.512-3.658-8.17-8.17-8.17h-45.104c-21.817,0-42.573,17.493-46.271,38.994l-2.74,15.934
	c-22.845,3.015-43.564,20.48-50.407,42.483H152.69c-6.842-22.003-27.562-39.468-50.407-42.483l-2.74-15.935
	c-3.696-21.501-24.453-38.994-46.27-38.994H8.17c-4.512,0-8.17,3.658-8.17,8.17c0,4.512,3.658,8.17,8.17,8.17h45.104
	c13.982,0,27.797,11.642,30.166,25.422l3.827,22.26c0.674,3.921,4.074,6.786,8.053,6.786c19.433,0,38.629,15.812,42.64,34.821
	L112.164,336.34H86.281c-19.728,0-36.233,14.057-40.029,32.681H8.17c-4.512,0-8.17,3.658-8.17,8.17c0,4.512,3.658,8.17,8.17,8.17
	h132.58c4.512,0,8.17-3.658,8.17-8.17c0-4.512-3.658-8.17-8.17-8.17H63.176c3.373-9.509,12.454-16.34,23.105-16.34h32.827
	c0.024,0,21.641,0,21.641,0c4.512,0,8.17-3.658,8.17-8.17c0-4.512-3.658-8.17-8.17-8.17h-11.968l24.293-131.354h29.393v98.673
	h-24.227c-4.512,0-8.17,3.658-8.17,8.17c0,4.512,3.658,8.17,8.17,8.17h194.977c4.512,0,8.17-3.658,8.17-8.17
	c0-4.512-3.658-8.17-8.17-8.17H264.17v-71.535c0-4.512-3.658-8.17-8.17-8.17s-8.17,3.658-8.17,8.17v71.535h-49.021v-98.673h16.34
	v41.482c0,4.512,3.658,8.17,8.17,8.17c4.512,0,8.17-3.658,8.17-8.17v-41.482h127.436l24.289,131.357h-11.968
	c-4.512,0-8.17,3.658-8.17,8.17s3.658,8.17,8.17,8.17h21.743c0.071,0,32.726,0,32.726,0c10.65,0,19.731,6.829,23.104,16.337H173.431
	c-4.512,0-8.17,3.658-8.17,8.17c0,4.512,3.658,8.17,8.17,8.17h284.892c0.025,0,0.049,0.003,0.074,0.003
	c0.025,0,0.049-0.003,0.074-0.003h45.359c4.512,0,8.17-3.658,8.17-8.17C512,372.679,508.342,369.021,503.83,369.021z"/>
</svg>